<svg version="1.1" xmlns="http://www.w3.org/2000/svg" xmlns:xlink="http://www.w3.org/1999/xlink" width="1024px" height="1024px" viewBox="0,0,256,256"><g fill="#a1a1a1" fill-rule="nonzero" stroke="none" stroke-width="1" stroke-linecap="butt" stroke-linejoin="miter" stroke-miterlimit="10" stroke-dasharray="" stroke-dashoffset="0" font-family="none" font-weight="none" font-size="none" text-anchor="none" style="mix-blend-mode: normal"><g transform="scale(0.25,0.25)"><path d="M512,42.65984c63.77472,0 124.60715,12.3904 182.49728,37.1712c57.89013,24.7808 107.77941,58.11541 149.66784,100.00384c41.88843,41.88843 75.22304,91.77771 100.00384,149.66784c24.7808,57.89013 37.1712,118.72256 37.1712,182.49728c0,63.77472 -12.3904,124.60715 -37.1712,182.49728c-24.7808,57.89013 -58.11541,107.77941 -100.00384,149.66784c-41.88843,41.88843 -91.77771,75.22304 -149.66784,100.00384c-57.89013,24.7808 -118.72256,37.1712 -182.49728,37.1712c-63.77472,0 -124.60715,-12.3904 -182.49728,-37.1712c-57.89013,-24.7808 -107.77941,-58.11541 -149.66784,-100.00384c-41.88843,-41.88843 -75.22304,-91.77771 -100.00384,-149.66784c-24.7808,-57.89013 -37.1712,-118.72256 -37.1712,-182.49728c0,-63.77472 12.3904,-124.60715 37.1712,-182.49728c24.7808,-57.89013 58.11541,-107.77941 100.00384,-149.66784c41.88843,-41.88843 91.77771,-75.22304 149.66784,-100.00384c57.89013,-24.7808 118.72256,-37.1712 182.49728,-37.1712zM512,128c-52.00555,0 -101.73099,10.16491 -149.17632,30.49472c-47.44533,20.32981 -88.27563,47.60917 -122.49088,81.83808c-34.21525,34.22891 -61.49461,75.0592 -81.83808,122.49088c-20.34347,47.43168 -30.50837,97.15712 -30.49472,149.17632c0.01365,52.0192 10.17856,101.74464 30.49472,149.17632c20.31616,47.43168 47.59552,88.26197 81.83808,122.49088c34.24256,34.22891 75.07285,61.50827 122.49088,81.83808c47.41803,20.32981 97.14347,30.49472 149.17632,30.49472c52.03285,0 101.75829,-10.16491 149.17632,-30.49472c47.41803,-20.32981 88.24832,-47.60917 122.49088,-81.83808c34.24256,-34.22891 61.52192,-75.0592 81.83808,-122.49088c20.31616,-47.43168 30.48107,-97.15712 30.49472,-149.17632c0.01365,-52.0192 -10.15125,-101.74464 -30.49472,-149.17632c-20.34347,-47.43168 -47.62283,-88.26197 -81.83808,-122.49088c-34.21525,-34.22891 -75.04555,-61.50827 -122.49088,-81.83808c-47.44533,-20.32981 -97.17077,-30.49472 -149.17632,-30.49472zM632.66816,348.32384c11.78283,0 21.89312,4.16427 30.33088,12.4928c8.43776,8.32853 12.66347,18.38421 12.67712,30.16704c0.01365,11.78283 -4.21205,21.89312 -12.67712,30.33088l-90.66496,90.66496l90.66496,90.33728c8.45141,8.45141 12.67712,18.45248 12.67712,30.0032c0,11.78283 -4.22571,21.83851 -12.67712,30.16704c-8.45141,8.32853 -18.56171,12.4928 -30.33088,12.4928c-11.76917,0 -21.77024,-4.10965 -30.0032,-12.32896l-90.66496,-90.33728l-90.33728,90.33728c-8.21931,8.21931 -18.3296,12.32896 -30.33088,12.32896c-11.78283,0 -21.83851,-4.10965 -30.16704,-12.32896c-8.32853,-8.21931 -12.4928,-18.22037 -12.4928,-30.0032c0,-12.00128 4.10965,-22.11157 12.32896,-30.33088l90.66496,-90.33728l-90.66496,-90.66496c-8.21931,-8.21931 -12.32896,-18.22037 -12.32896,-30.0032c0,-11.78283 4.16427,-21.89312 12.4928,-30.33088c8.32853,-8.43776 18.38421,-12.66347 30.16704,-12.67712c11.78283,-0.01365 21.89312,4.21205 30.33088,12.67712l90.33728,90.66496l90.66496,-90.66496c8.45141,-8.45141 18.45248,-12.67712 30.0032,-12.67712z"></path></g></g></svg>