<svg version="1.1" xmlns="http://www.w3.org/2000/svg" xmlns:xlink="http://www.w3.org/1999/xlink" width="1024px" height="1024px" viewBox="0,0,256,256"><g fill="#a1a1a1" fill-rule="nonzero" stroke="none" stroke-width="1" stroke-linecap="butt" stroke-linejoin="miter" stroke-miterlimit="10" stroke-dasharray="" stroke-dashoffset="0" font-family="none" font-weight="none" font-size="none" text-anchor="none" style="mix-blend-mode: normal"><g transform="scale(0.25,0.25)"><path d="M512,981.33333c-260.26667,0 -469.33333,-209.06667 -469.33333,-469.33333c0,-260.26667 209.06667,-469.33333 469.33333,-469.33333c260.26667,0 469.33333,209.06667 469.33333,469.33333c0,260.26667 -209.06667,469.33333 -469.33333,469.33333zM512,128c-213.33333,0 -384,170.66667 -384,384c0,213.33333 170.66667,384 384,384c213.33333,0 384,-170.66667 384,-384c0,-213.33333 -170.66667,-384 -384,-384z"></path><path d="M512,725.33333c-25.6,0 -42.66667,-17.06667 -42.66667,-42.66667v-170.66667c0,-25.6 17.06667,-42.66667 42.66667,-42.66667c25.6,0 42.66667,17.06667 42.66667,42.66667v170.66667c0,25.6 -17.06667,42.66667 -42.66667,42.66667zM512,384c-4.26667,0 -12.8,0 -17.06667,-4.26667c-4.26667,-4.26667 -8.53333,-4.26667 -12.8,-8.53333c-8.53333,-8.53333 -12.8,-17.06667 -12.8,-29.86667v-8.53333c0,-4.26667 0,-4.26667 4.26667,-8.53333c0,-4.26667 4.26667,-4.26667 4.26667,-8.53333c0,-4.26667 4.26667,-4.26667 4.26667,-4.26667c4.26667,-4.26667 8.53333,-8.53333 12.8,-8.53333c17.06667,-8.53333 34.13333,-4.26667 46.93333,8.53333l4.26667,4.26667c0,4.26667 4.26667,4.26667 4.26667,8.53333c0,4.26667 0,4.26667 4.26667,8.53333v8.53333c0,12.8 -4.26667,21.33333 -12.8,29.86667c-4.26667,0 -4.26667,4.26667 -4.26667,4.26667c-4.26667,0 -4.26667,4.26667 -8.53333,4.26667c-4.26667,0 -4.26667,0 -8.53333,4.26667z"></path></g></g></svg>